<svg class="guestbook-svg" xmlns="http://www.w3.org/2000/svg" viewBox="0 0 500 500" height="125" width="125"
    style="shape-rendering:geometricPrecision;text-rendering:geometricPrecision;image-rendering:optimizeQuality;fill-rule:evenodd;clip-rule:evenodd">
    <path fill="white"
        d="M77.5 59.5a4996.061 4996.061 0 0 1 143.5 35l141-35c2.151.143 3.818 1.143 5 3 .5 10.995.667 21.995.5 33 7.674-.166 15.341 0 23 .5 10.915 2.98 16.748 10.147 17.5 21.5a4420.29 4420.29 0 0 1 0 133c-.273 1.829-1.107 3.329-2.5 4.5-2.599.769-5.099.602-7.5-.5a4827.651 4827.651 0 0 1-2-138c-.668-3.999-2.835-6.832-6.5-8.5a95.554 95.554 0 0 0-22-1.5c.167 49.001 0 98.001-.5 147-3.333 2.667-6.667 2.667-10 0-.5-59.999-.667-119.999-.5-180l-130 31v227c19.786-4.53 39.453-9.53 59-15a388.977 388.977 0 0 1-12.5-20c-4.839-19.475 2.661-29.308 22.5-29.5 3.675.557 7.008 1.89 10 4a482.508 482.508 0 0 1 26.5 38.5c5.206-8.272 12.539-11.272 22-9 5.175-15.004 15.342-20.004 30.5-15 7.785-12.78 18.451-15.947 32-9.5 4.252 3.581 7.752 7.748 10.5 12.5a2719.819 2719.819 0 0 0 38 59c13.085 21.662 13.751 43.662 2 66-3.083 5.088-6.917 9.588-11.5 13.5a407.687 407.687 0 0 1-29 18c-19.758 8.689-39.425 8.355-59-1-29.406-13.123-57.573-28.289-84.5-45.5-3.333-6.333-3.333-12.667 0-19 3.54-3.626 7.874-5.293 13-5 9.153.999 18.32 1.166 27.5.5L294 329.5c-.739-1.074-1.739-1.741-3-2a1159.364 1159.364 0 0 1-29.5 6.5l25 1c4 3.333 4 6.667 0 10-78 .667-156 .667-234 0-9.014-3.015-14.514-9.182-16.5-18.5-.667-70.667-.667-141.333 0-212 1.497-8.162 5.997-13.995 13.5-17.5a115.334 115.334 0 0 1 25-1.5c-.166-11.005 0-22.005.5-33a10.521 10.521 0 0 0 2.5-3zm8 13a4620.048 4620.048 0 0 0 130 32v227a18226.733 18226.733 0 0 1-129-32c-1-75.664-1.333-151.33-1-227zm-28 34h17c-.167 67.001 0 134.001.5 201 1.171 1.393 2.671 2.227 4.5 2.5a13776.499 13776.499 0 0 0 101 24 3842.33 3842.33 0 0 1-124 0c-4.193-1.526-7.026-4.359-8.5-8.5-.667-70-.667-140 0-210 1.75-4.585 4.916-7.585 9.5-9zm231 172c4.626-.8 8.46.534 11.5 4a3311.87 3311.87 0 0 0 42 65c2.553 2.229 5.386 2.562 8.5 1 1.34-1.188 2.007-2.688 2-4.5a677.24 677.24 0 0 0-11.5-21.5c.756-10.466 5.923-13.299 15.5-8.5a222.537 222.537 0 0 0 14 21c7.5 1.833 10.333-1 8.5-8.5-5.745-6.824-9.912-14.491-12.5-23 1.727-7.193 6.061-9.693 13-7.5 6.336 7.145 11.836 14.979 16.5 23.5 4.155 4.204 7.822 3.871 11-1 .667-1.333.667-2.667 0-4a97.042 97.042 0 0 0-9-14c-3.871-5.941-3.038-11.107 2.5-15.5 3.134-.79 6.134-.457 9 1a1287.113 1287.113 0 0 1 49.5 75.5c9.933 25.522 3.767 46.022-18.5 61.5-10.526 7.762-22.192 13.095-35 16-12.59.854-24.59-1.479-36-7a1027.865 1027.865 0 0 1-76-40c-1.514-1.439-1.847-2.939-1-4.5 15.315-.304 30.648-.471 46-.5 1.218-1.438 1.885-3.105 2-5a36.012 36.012 0 0 0-4.5-9.5 2301.166 2301.166 0 0 1-53.5-85c.786-3.933 2.786-6.933 6-9z" />
    <path style="opacity:.891" fill="white"
        d="M117.5 141.5a1166.434 1166.434 0 0 1 69 20.5c3.687 2.398 4.521 5.565 2.5 9.5a22.703 22.703 0 0 1-5 2L118.5 153c-3.792-2.053-4.958-5.219-3.5-9.5.995-.566 1.828-1.233 2.5-2z" />
    <path style="opacity:.888" fill="white"
        d="M319.5 141.5c7.165-1.003 9.998 1.997 8.5 9a6.978 6.978 0 0 1-3.5 2.5 7555.976 7555.976 0 0 1-66 20.5c-4.566-.802-6.4-3.468-5.5-8 .5-1.833 1.667-3 3.5-3.5a4095.498 4095.498 0 0 0 63-20.5z" />
    <path style="opacity:.891" fill="white"
        d="M117.5 185.5a1589.961 1589.961 0 0 1 68 20.5c4.455 2.06 5.622 5.227 3.5 9.5-2.243 1.782-4.743 2.282-7.5 1.5a1934.198 1934.198 0 0 1-66.5-21.5c-1.137-3.963-.303-7.296 2.5-10z" />
    <path style="opacity:.89" fill="white"
        d="M320.5 185.5c8.457.937 10.124 4.77 5 11.5l-64 20c-6.334 1.329-9.168-1.171-8.5-7.5.5-1.833 1.667-3 3.5-3.5a2220.986 2220.986 0 0 0 64-20.5z" />
    <path style="opacity:.894" fill="white"
        d="M116.5 230.5a32.462 32.462 0 0 1 8 .5 4509.421 4509.421 0 0 1 63 20c4 3.333 4 6.667 0 10a12.494 12.494 0 0 1-7 0l-64-20c-2.62-3.498-2.62-6.998 0-10.5zM318.5 230.5c7.481-2.006 10.647.661 9.5 8-1.008 1.759-2.508 2.926-4.5 3.5l-61 19c-7.525 1.639-10.525-1.195-9-8.5a12.403 12.403 0 0 1 4-2.5 2183.35 2183.35 0 0 0 61-19.5z" />
</svg>